# xmcd
#
# Track frame offsets: 
#        150
#        14695
#        28693
#        41250
#        54620
#        83911
#        101127
#        113259
#        133928
#        146475
#        157120
#        171070
#        195023
#        213575
#        230587
#        244374
#        264649
#        277786
#        292156
#        311891
#        324431
#        335953
#
# Disc length: 4772 seconds
#
# Revision: 1
# Processed by: cddbd v1.5.2PL0 Copyright (c) Steve Scherf et al.
# Submitted via: ExactAudioCopy v1.3
#
DISCID=4b12a216
DTITLE=Howling Wolf - Akella Presents - Greatest Bluesmen - vol. 03  C
DTITLE=D2
DYEAR=2017
DGENRE=Blues
TTITLE0=I'll Be Around
TTITLE1=Three Hundred Pounds Of Joy
TTITLE2=Nature
TTITLE3=Tail Dragger
TTITLE4=Back Door Man
TTITLE5=Just As Long
TTITLE6=I Smell A Rat
TTITLE7=If I Were A Bird
TTITLE8=Highway 49
TTITLE9=Do The Do
TTITLE10=Poor Boy
TTITLE11=Killing Floor
TTITLE12=I Want To Have A Word With You
TTITLE13=Rockin' Daddy
TTITLE14=Who's Been Talking
TTITLE15=Wang Dang Doodle
TTITLE16=Stop Using Me
TTITLE17=Watergate Blues
TTITLE18=Speak Now Woman (alternate)
TTITLE19=Moving
TTITLE20=Leave Here Walking
TTITLE21=You Turn Slick On Me
EXTD=
EXTT0=
EXTT1=
EXTT2=
EXTT3=
EXTT4=
EXTT5=
EXTT6=
EXTT7=
EXTT8=
EXTT9=
EXTT10=
EXTT11=
EXTT12=
EXTT13=
EXTT14=
EXTT15=
EXTT16=
EXTT17=
EXTT18=
EXTT19=
EXTT20=
EXTT21=
PLAYORDER=
